<svg xmlns="http://www.w3.org/2000/svg" viewBox="0 0 63.4 13.036">
  <g id="Layer_2" data-name="Layer 2">
    <g id="Layer_1-2" data-name="Layer 1">
      <g>
        <path d="M4.447,5.253H.612V2.7H11.055V5.253H7.22V15.3H4.447Z" transform="translate(-0.612 -2.48)"/>
        <path d="M15.877,2.606h2.558l5.4,12.694h-2.9l-1.152-2.827h-5.33L13.3,15.3H10.476Zm2.917,7.418L17.12,5.937l-1.674,4.087Z" transform="translate(-0.612 -2.48)"/>
        <path d="M29.738,2.606h2.556L37.7,15.3H34.8l-1.152-2.827h-5.33L27.163,15.3H24.336Zm2.917,7.418L30.98,5.937l-1.675,4.087Z" transform="translate(-0.612 -2.48)"/>
        <path d="M38.268,9.034V9A6.469,6.469,0,0,1,44.876,2.48a6.923,6.923,0,0,1,4.952,1.728L48.082,6.315a4.644,4.644,0,0,0-3.3-1.278,3.786,3.786,0,0,0-3.62,3.925V9a3.776,3.776,0,0,0,3.817,4,4.424,4.424,0,0,0,2.611-.756v-1.8H44.8v-2.4h5.474v5.474a8.177,8.177,0,0,1-5.384,2A6.308,6.308,0,0,1,38.268,9.034Z" transform="translate(-0.612 -2.48)"/>
        <path d="M52.38,9.034V9A6.407,6.407,0,0,1,58.953,2.48a6.5,6.5,0,0,1,4.969,1.944L62.158,6.459a4.654,4.654,0,0,0-3.224-1.422A3.733,3.733,0,0,0,55.28,8.962V9a3.743,3.743,0,0,0,3.654,3.961,4.552,4.552,0,0,0,3.314-1.476l1.764,1.782a6.442,6.442,0,0,1-5.168,2.251A6.362,6.362,0,0,1,52.38,9.034Z" transform="translate(-0.612 -2.48)"/>
      </g>
    </g>
  </g>
</svg>
